# xmcd
#
# Track frame offsets:
# 150
# 12364
# 25103
# 35999
# 46089
# 55905
# 71323
# 83877
# 100032
# 109971
# 126003
# 137774
# 151466
# 162433
# 175407
# 184811
# 195356
# 204113
# 215047
# 222729
#
# Disc length: 3160 seconds
#
#
# Revision: 0
# Processed by: cddbd v1.5.2PL0 Copyright (c) Steve Scherf et al.
# Submitted via: FreeRIP 2.944 
#
DISCID=1f0c5614
DTITLE=Frankie Spetich - Rainbow of music
DYEAR=1900
DGENRE=Polka
TTITLE0=Amazing Grace
TTITLE1=Beer Barrel Polka
TTITLE2=Blue Skirt Waltz
TTITLE3=Candy Kisses
TTITLE4=Darlene Waltz
TTITLE5=European Nights Waltz
TTITLE6=European Waltz
TTITLE7=Friends stay Friends
TTITLE8=It`s Getting Dusk
TTITLE9=Holtzhacker Polka
TTITLE10=How Great Throu Art
TTITLE11=Lefty`s Polka
TTITLE12=Love me Tender
TTITLE13=My Father`s Waltz
TTITLE14=Peg O´ My Heart
TTITLE15=Pennsylvania Polka
TTITLE16=Prince of Peace
TTITLE17=San Antonio Rose
TTITLE18=Faith, Hope and Salvation
TTITLE19=Tennessee Waltz
EXTD=
EXTT0=
EXTT1=
EXTT2=
EXTT3=
EXTT4=
EXTT5=
EXTT6=
EXTT7=
EXTT8=
EXTT9=
EXTT10=
EXTT11=
EXTT12=
EXTT13=
EXTT14=
EXTT15=
EXTT16=
EXTT17=
EXTT18=
EXTT19=
PLAYORDER=
